name C:\Users\u0101727\Documents\MyRepositories\upper-imu-dc\OpenSim\subject0\MA\ResultsMA\grid_4nodes_9dim\angles_22.mot
datacolumns 10
datarows 42
range 2200.01000000 2200.42000000
endheader 
time	clav_prot	clav_elev	scapula_abduction	scapula_elevation	scapula_upward_rot	scapula_winging	plane_elv	shoulder_elv	axial_rot	
       2200.01000000	        -50.00000000	        -10.00000000	         -3.33333333	         -3.33333333	         90.00000000	          0.00000000	        -30.00000000	         26.66666667	         90.00000000	
       2200.02000000	        -38.33333333	        -10.00000000	         -3.33333333	         -3.33333333	         90.00000000	          0.00000000	        -30.00000000	         26.66666667	         90.00000000	
       2200.03000000	        -26.66666667	        -10.00000000	         -3.33333333	         -3.33333333	         90.00000000	          0.00000000	        -30.00000000	         26.66666667	         90.00000000	
       2200.04000000	        -15.00000000	        -10.00000000	         -3.33333333	         -3.33333333	         90.00000000	          0.00000000	        -30.00000000	         26.66666667	         90.00000000	
       2200.05000000	        -50.00000000	          0.00000000	         -3.33333333	         -3.33333333	         90.00000000	          0.00000000	        -30.00000000	         26.66666667	         90.00000000	
       2200.06000000	        -38.33333333	          0.00000000	         -3.33333333	         -3.33333333	         90.00000000	          0.00000000	        -30.00000000	         26.66666667	         90.00000000	
       2200.07000000	        -26.66666667	          0.00000000	         -3.33333333	         -3.33333333	         90.00000000	          0.00000000	        -30.00000000	         26.66666667	         90.00000000	
       2200.08000000	        -15.00000000	          0.00000000	         -3.33333333	         -3.33333333	         90.00000000	          0.00000000	        -30.00000000	         26.66666667	         90.00000000	
       2200.09000000	        -50.00000000	         10.00000000	         -3.33333333	         -3.33333333	         90.00000000	          0.00000000	        -30.00000000	         26.66666667	         90.00000000	
       2200.10000000	        -38.33333333	         10.00000000	         -3.33333333	         -3.33333333	         90.00000000	          0.00000000	        -30.00000000	         26.66666667	         90.00000000	
       2200.11000000	        -26.66666667	         10.00000000	         -3.33333333	         -3.33333333	         90.00000000	          0.00000000	        -30.00000000	         26.66666667	         90.00000000	
       2200.12000000	        -15.00000000	         10.00000000	         -3.33333333	         -3.33333333	         90.00000000	          0.00000000	        -30.00000000	         26.66666667	         90.00000000	
       2200.13000000	        -50.00000000	         20.00000000	         -3.33333333	         -3.33333333	         90.00000000	          0.00000000	        -30.00000000	         26.66666667	         90.00000000	
       2200.14000000	        -38.33333333	         20.00000000	         -3.33333333	         -3.33333333	         90.00000000	          0.00000000	        -30.00000000	         26.66666667	         90.00000000	
       2200.15000000	        -26.66666667	         20.00000000	         -3.33333333	         -3.33333333	         90.00000000	          0.00000000	        -30.00000000	         26.66666667	         90.00000000	
       2200.16000000	        -15.00000000	         20.00000000	         -3.33333333	         -3.33333333	         90.00000000	          0.00000000	        -30.00000000	         26.66666667	         90.00000000	
       2200.17000000	        -50.00000000	        -10.00000000	         15.00000000	         -3.33333333	         90.00000000	          0.00000000	        -30.00000000	         26.66666667	         90.00000000	
       2200.18000000	        -38.33333333	        -10.00000000	         15.00000000	         -3.33333333	         90.00000000	          0.00000000	        -30.00000000	         26.66666667	         90.00000000	
       2200.19000000	        -26.66666667	        -10.00000000	         15.00000000	         -3.33333333	         90.00000000	          0.00000000	        -30.00000000	         26.66666667	         90.00000000	
       2200.20000000	        -15.00000000	        -10.00000000	         15.00000000	         -3.33333333	         90.00000000	          0.00000000	        -30.00000000	         26.66666667	         90.00000000	
       2200.21000000	        -50.00000000	          0.00000000	         15.00000000	         -3.33333333	         90.00000000	          0.00000000	        -30.00000000	         26.66666667	         90.00000000	
       2200.22000000	        -38.33333333	          0.00000000	         15.00000000	         -3.33333333	         90.00000000	          0.00000000	        -30.00000000	         26.66666667	         90.00000000	
       2200.23000000	        -26.66666667	          0.00000000	         15.00000000	         -3.33333333	         90.00000000	          0.00000000	        -30.00000000	         26.66666667	         90.00000000	
       2200.24000000	        -15.00000000	          0.00000000	         15.00000000	         -3.33333333	         90.00000000	          0.00000000	        -30.00000000	         26.66666667	         90.00000000	
       2200.25000000	        -50.00000000	         10.00000000	         15.00000000	         -3.33333333	         90.00000000	          0.00000000	        -30.00000000	         26.66666667	         90.00000000	
       2200.26000000	        -38.33333333	         10.00000000	         15.00000000	         -3.33333333	         90.00000000	          0.00000000	        -30.00000000	         26.66666667	         90.00000000	
       2200.27000000	        -26.66666667	         10.00000000	         15.00000000	         -3.33333333	         90.00000000	          0.00000000	        -30.00000000	         26.66666667	         90.00000000	
       2200.28000000	        -15.00000000	         10.00000000	         15.00000000	         -3.33333333	         90.00000000	          0.00000000	        -30.00000000	         26.66666667	         90.00000000	
       2200.29000000	        -50.00000000	         20.00000000	         15.00000000	         -3.33333333	         90.00000000	          0.00000000	        -30.00000000	         26.66666667	         90.00000000	
       2200.30000000	        -38.33333333	         20.00000000	         15.00000000	         -3.33333333	         90.00000000	          0.00000000	        -30.00000000	         26.66666667	         90.00000000	
       2200.31000000	        -26.66666667	         20.00000000	         15.00000000	         -3.33333333	         90.00000000	          0.00000000	        -30.00000000	         26.66666667	         90.00000000	
       2200.32000000	        -15.00000000	         20.00000000	         15.00000000	         -3.33333333	         90.00000000	          0.00000000	        -30.00000000	         26.66666667	         90.00000000	
       2200.33000000	        -50.00000000	        -10.00000000	        -40.00000000	          3.33333333	         90.00000000	          0.00000000	        -30.00000000	         26.66666667	         90.00000000	
       2200.34000000	        -38.33333333	        -10.00000000	        -40.00000000	          3.33333333	         90.00000000	          0.00000000	        -30.00000000	         26.66666667	         90.00000000	
       2200.35000000	        -26.66666667	        -10.00000000	        -40.00000000	          3.33333333	         90.00000000	          0.00000000	        -30.00000000	         26.66666667	         90.00000000	
       2200.36000000	        -15.00000000	        -10.00000000	        -40.00000000	          3.33333333	         90.00000000	          0.00000000	        -30.00000000	         26.66666667	         90.00000000	
       2200.37000000	        -50.00000000	          0.00000000	        -40.00000000	          3.33333333	         90.00000000	          0.00000000	        -30.00000000	         26.66666667	         90.00000000	
       2200.38000000	        -38.33333333	          0.00000000	        -40.00000000	          3.33333333	         90.00000000	          0.00000000	        -30.00000000	         26.66666667	         90.00000000	
       2200.39000000	        -26.66666667	          0.00000000	        -40.00000000	          3.33333333	         90.00000000	          0.00000000	        -30.00000000	         26.66666667	         90.00000000	
       2200.40000000	        -15.00000000	          0.00000000	        -40.00000000	          3.33333333	         90.00000000	          0.00000000	        -30.00000000	         26.66666667	         90.00000000	
       2200.41000000	        -50.00000000	         10.00000000	        -40.00000000	          3.33333333	         90.00000000	          0.00000000	        -30.00000000	         26.66666667	         90.00000000	
       2200.42000000	        -38.33333333	         10.00000000	        -40.00000000	          3.33333333	         90.00000000	          0.00000000	        -30.00000000	         26.66666667	         90.00000000	
